# xmcd CD database file
#
# Track frame offsets:
#	150
#	20197
#	42714
#	73970
#	96121
#	114551
#	130120
#	148784
#	168899
#	185473
#
# Disc length: 2718 seconds
#
# Revision: 1
# Processed by: cddbd v1.4PL0 Copyright (c) Steve Scherf et al.
# Submitted via: CDex 1.50Beta6
#
DISCID=960a9c0a
DTITLE=Todd Johnson - A Solo Offering
DYEAR=2002
DGENRE=Jazz+Funk
TTITLE0=At the Cross
TTITLE1=The Battle Hymn of the Republic
TTITLE2=Mary Did You Know?
TTITLE3=The Old Rugged Cross
TTITLE4=My Jesus I Love Thee
TTITLE5=Soon and Very Soon
TTITLE6=His Name is Wonderful
TTITLE7=Silent Night
TTITLE8=How Great Thou Art
TTITLE9=Great is Thy Faithfulness
EXTD=YEAR: 2002
EXTT0=
EXTT1=
EXTT2=
EXTT3=
EXTT4=
EXTT5=
EXTT6=
EXTT7=
EXTT8=
EXTT9=
PLAYORDER=
